<svg id="Layer_1" data-name="Layer 1" xmlns="http://www.w3.org/2000/svg" viewBox="0 0 281.89 67.76">
  <defs>
    <style>
      .cls-1 {
        fill: #27292b;
      }
    </style>
  </defs>
  <g>
    <path class="cls-1" d="M603.72,406a2.4,2.4,0,0,0-2.17-3.05H580.81l-1.28,6.14h20.75A4,4,0,0,0,603.72,406Z" transform="translate(-548.53 -383.98)"/>
    <path class="cls-1" d="M601.21,420.79h-24.1l-1.27,6.11h24.1a4,4,0,0,0,3.44-3A2.41,2.41,0,0,0,601.21,420.79Z" transform="translate(-548.53 -383.98)"/>
    <path class="cls-1" d="M828.78,406.89l-.06-.06-.06-.06,0-.06-.06-.06-.06-.06,0-.06-.06,0-.06-.06-.06-.06,0-.06-.06-.06-.06-.06-.05-.06-.06-.06-.06-.06,0-.06-.06-.05-.06-.06-.06-.06-.05-.06-.06-.06-.06-.06,0-.06-.06-.06-.06-.06-.06-.06,0-.06-.06-.05-.06-.06,0-.06-.06-.06L827,405l-.06-.06,0-.06-.06-.06-.06-.06-.05-.06-.06-.05-.06-.06,0-.06-.06-.06-.06-.06-.06-.06-.05-.06-.06-.06-.06-.06,0-.06-.06-.06L826,404l-.06-.06,0-.06-.06-.06-.06-.06,0-.06-.06-.06-.06-.06-.05-.06-.06-.06-.06,0-.06-.06-.05-.06-.06-.06-.06-.06,0-.06-.06-.06L825,403l-.06-.06-.05-.06-.06-.05-.06-.06,0-.06-.06-.06-.06-.06-.06-.06,0-.06-.06-.06-.06-.06,0-.06-.06-.06-.06-.05-.05-.06-.06-.06L824,402l-.06-.06-.05-.06-.06-.06-.06-.06,0-.06-.06-.06-.06-.05-.06-.06-.05-.06-.06-.06-.06-.06,0-.06-.06-.06-.06-.06,0-.06-.06-.06-.06-.05a5.15,5.15,0,0,0-1.63-1.1,6.31,6.31,0,0,0-2.48-.49,8.64,8.64,0,0,0-5.55,2.18,14.2,14.2,0,0,1-3.28,2.21,5.62,5.62,0,0,1-1.4.48,7.48,7.48,0,0,1-1-.34c-1.26-.49-2.56-1-3.87-1.6a42.77,42.77,0,0,0-4.7-1.74,21.36,21.36,0,0,0-6.25-.89,23.79,23.79,0,0,0-5.84.75,17.45,17.45,0,0,0-2.31-2.69l-.05-.05-.06-.06-.06-.06,0-.06-.06-.06-.06-.06-.06-.06-.05-.06-.06-.06-.06-.06,0-.06-.06-.05L784,397l0-.06-.06-.06-.06-.06-.06-.06,0-.06-.06-.06-.06-.06-.05-.06-.06-.06-.06,0,0-.06-.06-.06-.06-.06-.06-.06-.05-.06-.06-.06L783,396l0-.06-.06-.06-.06-.05-.06-.06,0-.06-.06-.06-.06-.06-.06-.06,0-.06-.06-.06-.06-.06,0-.06-.06,0-.06-.06-.05-.06-.06-.06-.06-.06-.06-.06,0-.06-.06-.06-.06-.06-.05-.06-.06-.05-.06-.06-.06-.06-.05-.06-.06-.06-.06-.06,0-.06-.06-.06-.06-.06,0-.06-.06-.06-.06-.05-.06-.06,0-.06-.06-.06-.06-.06-.05-.06-.06-.06-.06-.06-.06-.06,0-.05-.06-.07-.06-.05-.05-.06-.06-.06-.06-.06,0-.06-.06-.06-.06-.06-.06-.06,0-.06-.06-.06,0,0c-4.63-5.14-13.24-8.77-28.3-8.8-13.4,0-22.81,3-29.45,7.22l0,0-.05-.06L722,391l-.06-.06-.06-.06,0-.06-.06-.06-.06-.06-.05-.06-.06-.05-.06-.06,0-.06-.06-.06-.06-.06-.06-.06,0-.06-.06-.06-.06-.06,0-.06L721,390l-.06,0-.06-.06,0-.06-.06-.06-.06-.06,0-.06-.06-.06-.06-.06-.05-.06-.06-.06-.06-.05-.06-.06-.05-.06-.06-.06-.06-.06,0-.06-.06-.06L720,389l-.06-.06-.05-.06-.06-.05-.06-.06,0-.06-.06-.06-.06-.06-.06-.06,0-.06-.06-.06-.06-.06,0-.06-.06-.05-.06-.06-.05-.06-.06-.06L719,388l-.06-.06-.05-.06-.06-.06-.06-.06,0-.06-.06-.05-.06-.06-.06-.06-.05-.06-.06-.06-.06-.06,0-.06-.06-.06-.06-.06-.06-.06,0-.06-.06,0-.06-.06,0-.06-.06-.06-.06-.06a5.72,5.72,0,0,0-4.16-1.63H691.28a8.76,8.76,0,0,0-6.07,2.67L671,402.1l-4.82-8.36a5.32,5.32,0,0,0-.9-1.15l-.06,0-.06-.06,0-.06-.06-.06-.06-.06-.05-.06-.06-.06-.06-.06-.06-.06,0-.06-.06-.05-.06-.06-.05-.06-.06-.06-.06-.06-.06-.06-.05-.06-.06-.06-.06-.06,0-.06-.06-.06-.06-.05,0-.06-.06-.06-.06-.06-.06-.06,0-.06-.06-.06-.06-.06-.05-.06-.06-.06-.06-.05-.06-.06,0-.06-.06-.06-.06-.06-.05-.06-.06-.06-.06-.06-.06-.06-.05-.06-.06-.05-.06-.06,0-.06-.06-.06-.06-.06,0-.06-.06-.06-.06-.06-.06-.06,0-.06-.06-.05-.06-.06-.05-.06-.06-.06-.06-.06-.06-.06,0-.06-.06-.06-.06-.06-.05-.06-.06-.06-.06-.05,0-.06-.06-.06-.06-.06-.06-.06,0-.06-.06-.06-.06-.06,0-.06-.06-.06-.06,0-.06-.06,0-.06-.06-.06-.06-.06-.05-.06-.06-.06-.06-.06-.05-.06-.06-.06-.06-.06-.06-.05-.05-.06-.06-.06-.06-.06,0-.06-.06-.06-.06-.06-.06-.06,0-.06-.06-.06-.06-.05,0-.06-.06-.06-.06-.06-.06-.06,0-.06-.06-.06a5.76,5.76,0,0,0-4.12-1.59H633a9.08,9.08,0,0,0-8.07,5.69c-3.18-3.63-8.33-5.62-14.68-5.62H566.58a9,9,0,0,0-8.44,6.95l-9.46,45.65a5.73,5.73,0,0,0,1.46,5.39s0,0,.05,0l.06.06.06.06.05.06.06.06.06.06.06.06.05.06.06.06.06.06,0,.05.06.06.06.06.06.06,0,.06.06.06.06.06,0,.06.06.06.06.06.05.05.06.06.06.06.06.06,0,.06.06.06.06.06.05.06.06.06.06.06.06.06.05.05.06.06.06.06,0,.06.06.06.06.06,0,.06.06.06.06.06.06.06,0,.05.06.06.06.06.05.06.06.06.06.06.06.06,0,.06.06.06.06.06.05.06.06,0,.06.06.06.06.05.06.06.06.06.06,0,.06.06.06.06.06,0,.06.06.05.06.06.06.06,0,.06.06.06.06.06.05.06.06.06.06.06.06.06,0,0,.06.06.06.06.05.06.06.06.06.06.06.06.05.06.06.06.06.06,0,.05.06.06.06.06,0,.06.06.06.06.06.06.06,0,.06.06.06.06.06s0,0,.05.05l.06.06.06.06.06.06,0,.06.06.06.06.06.05.06a5.78,5.78,0,0,0,4.17,1.63h47.06a28.26,28.26,0,0,0,13.55-3.41l0,0,.05.06.06.05.06.06.05.06.06.06.06.06.06.06.05.06.06.06.06.06,0,.06.06.05.06.06.06.06,0,.06.06.06.06.06,0,.06.06.06.06.06.06.06,0,0,.06.06.06.06,0,.06.06.06.06.06.06.06,0,.06.06.06a5.75,5.75,0,0,0,4.08,1.55h17.91a9,9,0,0,0,8.44-6.95l0-.17h0l.06.06.06.06,0,.06.06.05.06.06.06.06.05.06.06.06.06.06,0,.06.06.06.06.06.06.06,0,.06.06.05.06.06,0,.06.06.06.06.06.05.06.06.06.06.06.06.06.05.06.06.05.06.06.05.06.06.06.06.06.06.06.05.06.06.06.06.06,0,.06.06.05.06.06.06.06,0,.06.06.06.06.06,0,.06.06.06.06.06.05.06.06.06.06.05.06.06,0,.06.06.06.06.06.05.06.06.06.06.06.06.06.05.06.06.05.06.06,0,.06.06.06.06.06.06.06.05.06.06.06.06.06,0,.06.06,0,.06.06.05.06.06.06.06.06.06.06,0,.06.06.06.06.06.05.06.06.06.06.05.06.06.05.06.06.06.06.06,0,.06.06.06.06.06,0,.06.06.06.06.05.06.06,0,.06.06.06.06.06.05.06a5.78,5.78,0,0,0,4.22,1.68h9a8.81,8.81,0,0,0,6.24-2.85l3.14-3.33h0l.06.05,0,.06.06.06.06.06,0,.06.06.06.06.06.05.06.06.06.06.06.06,0,0,.06.06.06.06.06.05.06.06.06.06.06.06.06.05.06.06.06.06.05,0,.06.06.06.06.06,0,.06.06.06.06.06.06.06,0,.06.06.06.06,0,.05.06.06.06.06.06.06.06,0,.06.06.06.06.06.05.06.06.06.06.05.06.06.05.06.06.06.06.06,0,.06.06.06.06.06,0,.06.06.06.06.06.06.05,0,.06.06.06.06.06.05.06.06.06.06.06.06.06,0,.06.06.06.06.05s0,0,.05.06l.06.06.06.06.06.06.05.06.06.06.06.06,0,.06.06.06.06.06,0,.05.06.06.06.06.06.06,0,.06a5.74,5.74,0,0,0,4.16,1.63H707.1a9,9,0,0,0,8.44-6.95l.26-1.3,0,0,.06.06.06.06.06.06.05.06.06.06.06.06,0,.05.06.06.06.06.06.06.05.06.06.06.06.06,0,.06.06.06.06.06.06.05c5.35,5.58,14.46,8.31,27.76,8.33h0c24.15,0,35.57-9.33,40.87-19.27a9.34,9.34,0,0,0,2.73-1.62c1.34-1.15,3.25-2.51,4.76-2.51a4.78,4.78,0,0,1,1.6.22c.91.32,2.11.83,3.58,1.51a37.47,37.47,0,0,0,5.25,2,22.34,22.34,0,0,0,6.25.83,18.14,18.14,0,0,0,6-1.13,31.83,31.83,0,0,0,5.21-2.39,29.45,29.45,0,0,0,4.54-3.12,8.81,8.81,0,0,0,3-4.84l1.89-9.13A5.75,5.75,0,0,0,828.78,406.89Zm-226,30.88H555.68l9.46-45.65h43.68c8,0,13.81,4.28,12.06,12.23a14.52,14.52,0,0,1-7.36,9.82c4.85,1.66,7.52,5.6,6.33,11.34C618.3,433.49,610.64,437.77,602.75,437.77Zm100-.07H684.86l5-24.35-23,24.35h-9l-12.9-24.35-5,24.35H622.11l9.46-45.65H654l13.18,22.83,22.67-22.83h22.39Zm40.5-13.35c6.15,0,11.51-1.08,14.08-5.57H775.7c-4.32,15.42-18.88,20-35.43,20-17.22,0-30.41-5-26.76-22.28l.69-3.33C717.71,396,733,391,750.2,390.93c16.53,0,29.18,4.66,27.12,20H759c-.74-4.48-5.62-5.53-11.77-5.53-7.33.1-13.82,1.39-15.28,8.9l-.23,1.12C730,422.89,736,424.25,743.27,424.35Zm72.35-8.86a20.76,20.76,0,0,1-3.12,2.12,23.79,23.79,0,0,1-3.76,1.74,10.44,10.44,0,0,1-3.42.66,15.66,15.66,0,0,1-4.44-.58,30.56,30.56,0,0,1-4.43-1.72c-1.64-.75-3-1.33-4.07-1.71a11.06,11.06,0,0,0-3.75-.58q-4.82,0-10.26,4.66l1.82-8.77a18.43,18.43,0,0,1,5.47-3.58,15.62,15.62,0,0,1,5.78-1.07,14.89,14.89,0,0,1,4.37.61,38.42,38.42,0,0,1,4.08,1.51c1.38.6,2.73,1.16,4.06,1.68a9.35,9.35,0,0,0,3.19.78A11.92,11.92,0,0,0,812,410a23.36,23.36,0,0,0,5.48-3.64Z" transform="translate(-548.53 -383.98)"/>
  </g>
</svg>
